<mxfile host="app.diagrams.net" modified="2023-05-23T06:23:46.661Z" agent="Mozilla/5.0 (Windows NT 10.0; Win64; x64) AppleWebKit/537.36 (KHTML, like Gecko) Chrome/113.0.0.0 Safari/537.36" etag="IH9SCnYlaeupbVs9LmZL" version="21.3.2" type="device">
  <diagram id="9NBCRw0822-h-1l-Y3bd" name="Page-1">
    <mxGraphModel dx="1050" dy="541" grid="1" gridSize="10" guides="1" tooltips="1" connect="1" arrows="1" fold="1" page="1" pageScale="1" pageWidth="827" pageHeight="1169" math="0" shadow="0">
      <root>
        <mxCell id="0" />
        <mxCell id="1" parent="0" />
        <mxCell id="4cD9xiPLC4IeC2qKOgFL-10" style="rounded=0;orthogonalLoop=1;jettySize=auto;html=1;exitX=0;exitY=0;exitDx=0;exitDy=0;entryX=0;entryY=1;entryDx=0;entryDy=0;fontSize=14;elbow=vertical;" parent="1" source="4cD9xiPLC4IeC2qKOgFL-1" target="4cD9xiPLC4IeC2qKOgFL-2" edge="1">
          <mxGeometry relative="1" as="geometry">
            <Array as="points">
              <mxPoint x="300" y="190" />
            </Array>
          </mxGeometry>
        </mxCell>
        <mxCell id="4cD9xiPLC4IeC2qKOgFL-1" value="&lt;font style=&quot;font-size: 14px;&quot;&gt;Text Extraction&lt;/font&gt;" style="ellipse;whiteSpace=wrap;html=1;" parent="1" vertex="1">
          <mxGeometry x="320" y="340" width="160" height="60" as="geometry" />
        </mxCell>
        <mxCell id="4cD9xiPLC4IeC2qKOgFL-11" style="edgeStyle=none;rounded=0;orthogonalLoop=1;jettySize=auto;html=1;exitX=1;exitY=1;exitDx=0;exitDy=0;entryX=1;entryY=0;entryDx=0;entryDy=0;fontSize=14;elbow=vertical;" parent="1" source="4cD9xiPLC4IeC2qKOgFL-2" target="4cD9xiPLC4IeC2qKOgFL-1" edge="1">
          <mxGeometry relative="1" as="geometry">
            <Array as="points">
              <mxPoint x="500" y="290" />
            </Array>
          </mxGeometry>
        </mxCell>
        <mxCell id="4cD9xiPLC4IeC2qKOgFL-13" style="edgeStyle=none;rounded=0;orthogonalLoop=1;jettySize=auto;html=1;exitX=0;exitY=0.5;exitDx=0;exitDy=0;fontSize=14;elbow=vertical;endArrow=none;endFill=0;" parent="1" source="4cD9xiPLC4IeC2qKOgFL-2" edge="1">
          <mxGeometry relative="1" as="geometry">
            <mxPoint x="160" y="110" as="targetPoint" />
          </mxGeometry>
        </mxCell>
        <mxCell id="4cD9xiPLC4IeC2qKOgFL-14" style="edgeStyle=none;rounded=0;orthogonalLoop=1;jettySize=auto;html=1;exitX=1;exitY=0.5;exitDx=0;exitDy=0;fontSize=14;endArrow=classic;endFill=1;elbow=vertical;" parent="1" source="4cD9xiPLC4IeC2qKOgFL-2" edge="1">
          <mxGeometry relative="1" as="geometry">
            <mxPoint x="640" y="110" as="targetPoint" />
          </mxGeometry>
        </mxCell>
        <mxCell id="4cD9xiPLC4IeC2qKOgFL-2" value="&lt;font style=&quot;font-size: 14px;&quot;&gt;TextSummarizerXpress&lt;/font&gt;" style="ellipse;whiteSpace=wrap;html=1;" parent="1" vertex="1">
          <mxGeometry x="320" y="80" width="160" height="60" as="geometry" />
        </mxCell>
        <mxCell id="4cD9xiPLC4IeC2qKOgFL-6" value="Document" style="text;html=1;strokeColor=none;fillColor=none;align=center;verticalAlign=middle;whiteSpace=wrap;rounded=0;fontSize=14;" parent="1" vertex="1">
          <mxGeometry x="210" y="70" width="60" height="30" as="geometry" />
        </mxCell>
        <mxCell id="4cD9xiPLC4IeC2qKOgFL-7" value="Summary" style="text;html=1;strokeColor=none;fillColor=none;align=center;verticalAlign=middle;whiteSpace=wrap;rounded=0;fontSize=14;" parent="1" vertex="1">
          <mxGeometry x="530" y="70" width="60" height="30" as="geometry" />
        </mxCell>
      </root>
    </mxGraphModel>
  </diagram>
</mxfile>
